<svg width="200" height="200" viewBox="0 0 200 200" xmlns="http://www.w3.org/2000/svg">
  <!-- Vleugel (blauw) -->
  <path d="M50 100 C 70 70, 100 50, 130 80 C 100 90, 80 100, 70 120 Z" fill="#1E88E5" />
  <!-- Vleugel (paars) -->
  <path d="M70 120 C 80 100, 100 90, 130 80 C 120 110, 100 130, 80 140 Z" fill="#7B1FA2" />
  <!-- Lichaam en kop (oranje) -->
  <path d="M130 80 C 150 70, 160 90, 150 100 C 140 110, 130 100, 120 100 C 110 100, 100 110, 90 120 C 80 130, 70 120, 80 110 C 90 100, 110 90, 130 80 Z" fill="#FF9800" />
  <!-- Snavel (oranje) -->
  <path d="M150 100 C 160 95, 170 100, 160 105 C 155 105, 150 105, 150 100 Z" fill="#FF9800" />
</svg>
